STARTFONT 2.1
COMMENT Font converted from OTF to BDF.
FONT -FreeType-LED Display7-Medium-R-Normal--8-80-72-72-P-49-ISO10646-1
SIZE 8 72 72
FONTBOUNDINGBOX 6 6 0 0
STARTPROPERTIES 19
POINT_SIZE 80
PIXEL_SIZE 8
RESOLUTION_X 72
RESOLUTION_Y 72
FONT_ASCENT 6
FONT_DESCENT 2
AVERAGE_WIDTH 49
SPACING "P"
FOUNDRY "FreeType"
FAMILY_NAME "LED Display7"
CHARSET_REGISTRY "ISO10646"
CHARSET_ENCODING "1"
WEIGHT_NAME "Medium"
SLANT "R"
SETWIDTH_NAME "Normal"
COPYRIGHT "Copyright (c) 2012 by Style-7. All rights reserved. http://www.styleseven.com"
_TTF_PSNAME "LEDDisplay7"
_OTF_FONTFILE "led_display-7.ttf"
_GBDFED_INFO "Edited with gbdfed 1.6."
ENDPROPERTIES
CHARS 165
STARTCHAR char32
ENCODING 32
SWIDTH 750 0
DWIDTH 6 0
BBX 0 0 0 0
BITMAP
ENDCHAR
STARTCHAR char33
ENCODING 33
SWIDTH 750 0
DWIDTH 6 0
BBX 1 5 2 0
BITMAP
80
80
80
00
80
ENDCHAR
STARTCHAR char34
ENCODING 34
SWIDTH 750 0
DWIDTH 6 0
BBX 3 2 1 3
BITMAP
A0
A0
ENDCHAR
STARTCHAR char35
ENCODING 35
SWIDTH 750 0
DWIDTH 6 0
BBX 5 5 0 0
BITMAP
50
F8
50
F8
50
ENDCHAR
STARTCHAR char36
ENCODING 36
SWIDTH 750 0
DWIDTH 6 0
BBX 5 5 0 0
BITMAP
F8
A0
F8
28
F8
ENDCHAR
STARTCHAR char37
ENCODING 37
SWIDTH 750 0
DWIDTH 6 0
BBX 5 5 0 0
BITMAP
C8
D0
20
58
98
ENDCHAR
STARTCHAR char38
ENCODING 38
SWIDTH 750 0
DWIDTH 6 0
BBX 5 5 0 0
BITMAP
F0
90
F8
90
F8
ENDCHAR
STARTCHAR char39
ENCODING 39
SWIDTH 750 0
DWIDTH 6 0
BBX 1 2 2 3
BITMAP
80
80
ENDCHAR
STARTCHAR char40
ENCODING 40
SWIDTH 750 0
DWIDTH 6 0
BBX 2 5 2 0
BITMAP
40
80
80
80
40
ENDCHAR
STARTCHAR char41
ENCODING 41
SWIDTH 750 0
DWIDTH 6 0
BBX 2 5 1 0
BITMAP
80
40
40
40
80
ENDCHAR
STARTCHAR char42
ENCODING 42
SWIDTH 750 0
DWIDTH 6 0
BBX 3 3 1 1
BITMAP
A0
40
A0
ENDCHAR
STARTCHAR char43
ENCODING 43
SWIDTH 750 0
DWIDTH 6 0
BBX 3 3 1 1
BITMAP
40
E0
40
ENDCHAR
STARTCHAR char44
ENCODING 44
SWIDTH 750 0
DWIDTH 6 0
BBX 2 2 2 0
BITMAP
80
40
ENDCHAR
STARTCHAR char45
ENCODING 45
SWIDTH 750 0
DWIDTH 6 0
BBX 3 1 1 2
BITMAP
E0
ENDCHAR
STARTCHAR char46
ENCODING 46
SWIDTH 750 0
DWIDTH 6 0
BBX 1 1 2 0
BITMAP
80
ENDCHAR
STARTCHAR char47
ENCODING 47
SWIDTH 750 0
DWIDTH 6 0
BBX 5 5 0 0
BITMAP
08
10
20
40
80
ENDCHAR
STARTCHAR char48
ENCODING 48
SWIDTH 750 0
DWIDTH 6 0
BBX 5 6 0 0
BITMAP
70
88
A8
A8
88
70
ENDCHAR
STARTCHAR char49
ENCODING 49
SWIDTH 500 0
DWIDTH 4 0
BBX 3 6 1 0
BITMAP
20
60
A0
20
20
20
ENDCHAR
STARTCHAR char50
ENCODING 50
SWIDTH 625 0
DWIDTH 5 0
BBX 4 6 1 0
BITMAP
60
90
10
60
80
F0
ENDCHAR
STARTCHAR char51
ENCODING 51
SWIDTH 500 0
DWIDTH 4 0
BBX 4 6 1 0
BITMAP
E0
10
70
10
10
E0
ENDCHAR
STARTCHAR char52
ENCODING 52
SWIDTH 500 0
DWIDTH 4 0
BBX 4 6 1 0
BITMAP
90
90
90
F0
10
10
ENDCHAR
STARTCHAR char53
ENCODING 53
SWIDTH 500 0
DWIDTH 4 0
BBX 4 6 1 0
BITMAP
F0
80
E0
10
10
E0
ENDCHAR
STARTCHAR char54
ENCODING 54
SWIDTH 500 0
DWIDTH 4 0
BBX 4 6 1 0
BITMAP
F0
80
F0
90
90
F0
ENDCHAR
STARTCHAR char55
ENCODING 55
SWIDTH 500 0
DWIDTH 4 0
BBX 4 6 1 0
BITMAP
F0
10
10
10
10
10
ENDCHAR
STARTCHAR char56
ENCODING 56
SWIDTH 500 0
DWIDTH 4 0
BBX 4 6 1 0
BITMAP
60
90
60
90
90
60
ENDCHAR
STARTCHAR char57
ENCODING 57
SWIDTH 500 0
DWIDTH 4 0
BBX 4 6 1 0
BITMAP
60
90
90
70
10
E0
ENDCHAR
STARTCHAR char58
ENCODING 58
SWIDTH 750 0
DWIDTH 6 0
BBX 1 3 2 1
BITMAP
80
00
80
ENDCHAR
STARTCHAR char59
ENCODING 59
SWIDTH 750 0
DWIDTH 6 0
BBX 2 5 2 0
BITMAP
80
80
00
80
40
ENDCHAR
STARTCHAR char60
ENCODING 60
SWIDTH 750 0
DWIDTH 6 0
BBX 3 5 1 0
BITMAP
20
40
80
40
20
ENDCHAR
STARTCHAR char61
ENCODING 61
SWIDTH 500 0
DWIDTH 4 0
BBX 3 3 1 1
BITMAP
E0
00
E0
ENDCHAR
STARTCHAR char62
ENCODING 62
SWIDTH 750 0
DWIDTH 6 0
BBX 3 5 1 0
BITMAP
80
40
20
40
80
ENDCHAR
STARTCHAR char63
ENCODING 63
SWIDTH 625 0
DWIDTH 5 0
BBX 4 5 1 0
BITMAP
F0
90
30
00
20
ENDCHAR
STARTCHAR char64
ENCODING 64
SWIDTH 750 0
DWIDTH 6 0
BBX 6 6 0 0
BITMAP
78
84
94
A4
94
4C
ENDCHAR
STARTCHAR char65
ENCODING 65
SWIDTH 500 0
DWIDTH 4 0
BBX 4 5 1 0
BITMAP
60
90
F0
90
90
ENDCHAR
STARTCHAR char66
ENCODING 66
SWIDTH 500 0
DWIDTH 4 0
BBX 4 5 1 0
BITMAP
E0
90
E0
90
E0
ENDCHAR
STARTCHAR char67
ENCODING 67
SWIDTH 500 0
DWIDTH 4 0
BBX 4 5 1 0
BITMAP
F0
80
80
80
F0
ENDCHAR
STARTCHAR char68
ENCODING 68
SWIDTH 500 0
DWIDTH 4 0
BBX 4 5 1 0
BITMAP
E0
90
90
90
E0
ENDCHAR
STARTCHAR char69
ENCODING 69
SWIDTH 500 0
DWIDTH 4 0
BBX 4 5 1 0
BITMAP
F0
80
E0
80
F0
ENDCHAR
STARTCHAR char70
ENCODING 70
SWIDTH 500 0
DWIDTH 4 0
BBX 4 5 1 0
BITMAP
F0
80
E0
80
80
ENDCHAR
STARTCHAR char71
ENCODING 71
SWIDTH 500 0
DWIDTH 4 0
BBX 4 5 1 0
BITMAP
F0
80
B0
90
F0
ENDCHAR
STARTCHAR char72
ENCODING 72
SWIDTH 500 0
DWIDTH 4 0
BBX 4 5 1 0
BITMAP
90
90
F0
90
90
ENDCHAR
STARTCHAR char73
ENCODING 73
SWIDTH 750 0
DWIDTH 6 0
BBX 3 5 1 0
BITMAP
E0
40
40
40
E0
ENDCHAR
STARTCHAR char74
ENCODING 74
SWIDTH 500 0
DWIDTH 4 0
BBX 4 5 1 0
BITMAP
F0
10
10
90
70
ENDCHAR
STARTCHAR char75
ENCODING 75
SWIDTH 500 0
DWIDTH 4 0
BBX 4 5 1 0
BITMAP
90
A0
C0
A0
90
ENDCHAR
STARTCHAR char76
ENCODING 76
SWIDTH 500 0
DWIDTH 4 0
BBX 4 5 1 0
BITMAP
80
80
80
80
F0
ENDCHAR
STARTCHAR char77
ENCODING 77
SWIDTH 750 0
DWIDTH 6 0
BBX 5 5 0 0
BITMAP
88
D8
A8
88
88
ENDCHAR
STARTCHAR char78
ENCODING 78
SWIDTH 625 0
DWIDTH 5 0
BBX 5 5 0 0
BITMAP
88
C8
A8
98
88
ENDCHAR
STARTCHAR char79
ENCODING 79
SWIDTH 500 0
DWIDTH 4 0
BBX 4 5 1 0
BITMAP
F0
90
90
90
F0
ENDCHAR
STARTCHAR char80
ENCODING 80
SWIDTH 500 0
DWIDTH 4 0
BBX 4 5 1 0
BITMAP
F0
90
F0
80
80
ENDCHAR
STARTCHAR char81
ENCODING 81
SWIDTH 750 0
DWIDTH 6 0
BBX 5 5 0 0
BITMAP
F8
88
88
98
F8
ENDCHAR
STARTCHAR char82
ENCODING 82
SWIDTH 500 0
DWIDTH 4 0
BBX 4 5 1 0
BITMAP
E0
90
E0
90
90
ENDCHAR
STARTCHAR char83
ENCODING 83
SWIDTH 625 0
DWIDTH 5 0
BBX 4 5 1 0
BITMAP
70
80
60
10
E0
ENDCHAR
STARTCHAR char84
ENCODING 84
SWIDTH 625 0
DWIDTH 5 0
BBX 5 5 0 0
BITMAP
F8
20
20
20
20
ENDCHAR
STARTCHAR char85
ENCODING 85
SWIDTH 500 0
DWIDTH 4 0
BBX 4 5 0 0
BITMAP
90
90
90
90
70
ENDCHAR
STARTCHAR char86
ENCODING 86
SWIDTH 625 0
DWIDTH 5 0
BBX 5 5 0 0
BITMAP
88
88
88
50
20
ENDCHAR
STARTCHAR char87
ENCODING 87
SWIDTH 750 0
DWIDTH 6 0
BBX 5 5 0 0
BITMAP
88
A8
A8
A8
50
ENDCHAR
STARTCHAR char88
ENCODING 88
SWIDTH 500 0
DWIDTH 4 0
BBX 4 5 0 0
BITMAP
90
90
60
90
90
ENDCHAR
STARTCHAR char89
ENCODING 89
SWIDTH 750 0
DWIDTH 6 0
BBX 5 5 0 0
BITMAP
88
50
20
20
20
ENDCHAR
STARTCHAR char90
ENCODING 90
SWIDTH 750 0
DWIDTH 6 0
BBX 5 5 0 0
BITMAP
F8
10
20
40
F8
ENDCHAR
STARTCHAR char91
ENCODING 91
SWIDTH 750 0
DWIDTH 6 0
BBX 2 5 2 0
BITMAP
C0
80
80
80
C0
ENDCHAR
STARTCHAR char92
ENCODING 92
SWIDTH 750 0
DWIDTH 6 0
BBX 5 5 0 0
BITMAP
80
40
20
10
08
ENDCHAR
STARTCHAR char93
ENCODING 93
SWIDTH 750 0
DWIDTH 6 0
BBX 2 5 1 0
BITMAP
C0
40
40
40
C0
ENDCHAR
STARTCHAR char94
ENCODING 94
SWIDTH 750 0
DWIDTH 6 0
BBX 5 3 0 2
BITMAP
20
50
88
ENDCHAR
STARTCHAR char95
ENCODING 95
SWIDTH 750 0
DWIDTH 6 0
BBX 5 1 0 0
BITMAP
F8
ENDCHAR
STARTCHAR char96
ENCODING 96
SWIDTH 750 0
DWIDTH 6 0
BBX 2 2 2 3
BITMAP
80
40
ENDCHAR
STARTCHAR char97
ENCODING 97
SWIDTH 500 0
DWIDTH 4 0
BBX 4 5 0 0
BITMAP
60
90
F0
90
90
ENDCHAR
STARTCHAR char98
ENCODING 98
SWIDTH 500 0
DWIDTH 4 0
BBX 4 5 0 0
BITMAP
E0
90
E0
90
E0
ENDCHAR
STARTCHAR char99
ENCODING 99
SWIDTH 500 0
DWIDTH 4 0
BBX 4 5 1 0
BITMAP
F0
80
80
80
F0
ENDCHAR
STARTCHAR char100
ENCODING 100
SWIDTH 500 0
DWIDTH 4 0
BBX 4 5 0 0
BITMAP
E0
90
90
90
E0
ENDCHAR
STARTCHAR char101
ENCODING 101
SWIDTH 500 0
DWIDTH 4 0
BBX 4 5 0 0
BITMAP
F0
80
E0
80
F0
ENDCHAR
STARTCHAR char102
ENCODING 102
SWIDTH 500 0
DWIDTH 4 0
BBX 4 5 0 0
BITMAP
F0
80
E0
80
80
ENDCHAR
STARTCHAR char103
ENCODING 103
SWIDTH 500 0
DWIDTH 4 0
BBX 4 5 0 0
BITMAP
F0
80
B0
90
F0
ENDCHAR
STARTCHAR char104
ENCODING 104
SWIDTH 500 0
DWIDTH 4 0
BBX 4 5 0 0
BITMAP
90
90
F0
90
90
ENDCHAR
STARTCHAR char105
ENCODING 105
SWIDTH 750 0
DWIDTH 6 0
BBX 3 5 1 0
BITMAP
E0
40
40
40
E0
ENDCHAR
STARTCHAR char106
ENCODING 106
SWIDTH 500 0
DWIDTH 4 0
BBX 4 5 0 0
BITMAP
F0
10
10
90
70
ENDCHAR
STARTCHAR char107
ENCODING 107
SWIDTH 500 0
DWIDTH 4 0
BBX 4 5 0 0
BITMAP
90
A0
C0
A0
90
ENDCHAR
STARTCHAR char108
ENCODING 108
SWIDTH 500 0
DWIDTH 4 0
BBX 4 5 1 0
BITMAP
80
80
80
80
F0
ENDCHAR
STARTCHAR char109
ENCODING 109
SWIDTH 750 0
DWIDTH 6 0
BBX 5 5 0 0
BITMAP
88
D8
A8
88
88
ENDCHAR
STARTCHAR char110
ENCODING 110
SWIDTH 750 0
DWIDTH 6 0
BBX 5 5 0 0
BITMAP
88
C8
A8
98
88
ENDCHAR
STARTCHAR char111
ENCODING 111
SWIDTH 500 0
DWIDTH 4 0
BBX 4 5 0 0
BITMAP
F0
90
90
90
F0
ENDCHAR
STARTCHAR char112
ENCODING 112
SWIDTH 500 0
DWIDTH 4 0
BBX 4 5 0 0
BITMAP
F0
90
F0
80
80
ENDCHAR
STARTCHAR char113
ENCODING 113
SWIDTH 750 0
DWIDTH 6 0
BBX 5 5 0 0
BITMAP
F8
88
88
98
F8
ENDCHAR
STARTCHAR char114
ENCODING 114
SWIDTH 500 0
DWIDTH 4 0
BBX 4 5 0 0
BITMAP
E0
90
E0
90
90
ENDCHAR
STARTCHAR char115
ENCODING 115
SWIDTH 500 0
DWIDTH 4 0
BBX 4 5 1 0
BITMAP
70
80
60
10
E0
ENDCHAR
STARTCHAR char116
ENCODING 116
SWIDTH 750 0
DWIDTH 6 0
BBX 5 5 0 0
BITMAP
F8
20
20
20
20
ENDCHAR
STARTCHAR char117
ENCODING 117
SWIDTH 500 0
DWIDTH 4 0
BBX 4 5 1 0
BITMAP
90
90
90
90
70
ENDCHAR
STARTCHAR char118
ENCODING 118
SWIDTH 750 0
DWIDTH 6 0
BBX 5 5 0 0
BITMAP
88
88
88
50
20
ENDCHAR
STARTCHAR char119
ENCODING 119
SWIDTH 750 0
DWIDTH 6 0
BBX 5 5 0 0
BITMAP
88
A8
A8
A8
50
ENDCHAR
STARTCHAR char120
ENCODING 120
SWIDTH 625 0
DWIDTH 5 0
BBX 4 5 1 0
BITMAP
90
90
60
90
90
ENDCHAR
STARTCHAR char121
ENCODING 121
SWIDTH 750 0
DWIDTH 6 0
BBX 5 5 0 0
BITMAP
88
50
20
20
20
ENDCHAR
STARTCHAR char122
ENCODING 122
SWIDTH 750 0
DWIDTH 6 0
BBX 5 5 0 0
BITMAP
F8
10
20
40
F8
ENDCHAR
STARTCHAR char123
ENCODING 123
SWIDTH 750 0
DWIDTH 6 0
BBX 3 5 1 0
BITMAP
60
40
80
40
60
ENDCHAR
STARTCHAR char124
ENCODING 124
SWIDTH 750 0
DWIDTH 6 0
BBX 1 5 2 0
BITMAP
80
80
80
80
80
ENDCHAR
STARTCHAR char125
ENCODING 125
SWIDTH 750 0
DWIDTH 6 0
BBX 3 5 1 0
BITMAP
C0
40
20
40
C0
ENDCHAR
STARTCHAR char1040
ENCODING 1040
SWIDTH 500 0
DWIDTH 4 0
BBX 4 5 1 0
BITMAP
60
90
F0
90
90
ENDCHAR
STARTCHAR char1041
ENCODING 1041
SWIDTH 750 0
DWIDTH 6 0
BBX 5 5 0 0
BITMAP
F8
80
F0
88
F0
ENDCHAR
STARTCHAR char1042
ENCODING 1042
SWIDTH 500 0
DWIDTH 4 0
BBX 4 5 1 0
BITMAP
E0
90
E0
90
E0
ENDCHAR
STARTCHAR char1043
ENCODING 1043
SWIDTH 500 0
DWIDTH 4 0
BBX 4 5 1 0
BITMAP
F0
80
80
80
80
ENDCHAR
STARTCHAR char1044
ENCODING 1044
SWIDTH 750 0
DWIDTH 6 0
BBX 5 5 0 0
BITMAP
70
50
50
F8
88
ENDCHAR
STARTCHAR char1045
ENCODING 1045
SWIDTH 500 0
DWIDTH 4 0
BBX 4 5 1 0
BITMAP
F0
80
E0
80
F0
ENDCHAR
STARTCHAR char1046
ENCODING 1046
SWIDTH 750 0
DWIDTH 6 0
BBX 5 5 0 0
BITMAP
A8
A8
70
A8
A8
ENDCHAR
STARTCHAR char1047
ENCODING 1047
SWIDTH 625 0
DWIDTH 5 0
BBX 4 5 1 0
BITMAP
E0
10
60
10
E0
ENDCHAR
STARTCHAR char1048
ENCODING 1048
SWIDTH 750 0
DWIDTH 6 0
BBX 5 5 0 0
BITMAP
88
98
A8
C8
88
ENDCHAR
STARTCHAR char1049
ENCODING 1049
SWIDTH 750 0
DWIDTH 6 0
BBX 5 5 0 0
BITMAP
A8
98
A8
C8
88
ENDCHAR
STARTCHAR char1050
ENCODING 1050
SWIDTH 500 0
DWIDTH 4 0
BBX 4 5 1 0
BITMAP
90
A0
C0
A0
90
ENDCHAR
STARTCHAR char1051
ENCODING 1051
SWIDTH 625 0
DWIDTH 5 0
BBX 4 5 1 0
BITMAP
30
50
90
90
90
ENDCHAR
STARTCHAR char1052
ENCODING 1052
SWIDTH 750 0
DWIDTH 6 0
BBX 5 5 0 0
BITMAP
88
D8
A8
88
88
ENDCHAR
STARTCHAR char1053
ENCODING 1053
SWIDTH 500 0
DWIDTH 4 0
BBX 4 5 1 0
BITMAP
90
90
F0
90
90
ENDCHAR
STARTCHAR char1054
ENCODING 1054
SWIDTH 500 0
DWIDTH 4 0
BBX 4 5 1 0
BITMAP
F0
90
90
90
F0
ENDCHAR
STARTCHAR char1055
ENCODING 1055
SWIDTH 500 0
DWIDTH 4 0
BBX 4 5 1 0
BITMAP
F0
90
90
90
90
ENDCHAR
STARTCHAR char1056
ENCODING 1056
SWIDTH 500 0
DWIDTH 4 0
BBX 4 5 1 0
BITMAP
E0
90
E0
80
80
ENDCHAR
STARTCHAR char1057
ENCODING 1057
SWIDTH 500 0
DWIDTH 4 0
BBX 4 5 1 0
BITMAP
F0
80
80
80
F0
ENDCHAR
STARTCHAR char1058
ENCODING 1058
SWIDTH 750 0
DWIDTH 6 0
BBX 5 5 0 0
BITMAP
F8
20
20
20
20
ENDCHAR
STARTCHAR char1059
ENCODING 1059
SWIDTH 500 0
DWIDTH 4 0
BBX 4 5 1 0
BITMAP
90
90
F0
10
F0
ENDCHAR
STARTCHAR char1060
ENCODING 1060
SWIDTH 750 0
DWIDTH 6 0
BBX 5 6 0 0
BITMAP
20
70
A8
A8
70
20
ENDCHAR
STARTCHAR char1061
ENCODING 1061
SWIDTH 625 0
DWIDTH 5 0
BBX 4 5 1 0
BITMAP
90
90
60
90
90
ENDCHAR
STARTCHAR char1062
ENCODING 1062
SWIDTH 500 0
DWIDTH 4 0
BBX 4 5 1 0
BITMAP
A0
A0
A0
F0
10
ENDCHAR
STARTCHAR char1063
ENCODING 1063
SWIDTH 625 0
DWIDTH 5 0
BBX 4 5 1 0
BITMAP
90
90
70
10
10
ENDCHAR
STARTCHAR char1064
ENCODING 1064
SWIDTH 750 0
DWIDTH 6 0
BBX 5 5 0 0
BITMAP
A8
A8
A8
A8
F8
ENDCHAR
STARTCHAR char1065
ENCODING 1065
SWIDTH 750 0
DWIDTH 6 0
BBX 6 5 0 0
BITMAP
88
A8
A8
FC
04
ENDCHAR
STARTCHAR char1066
ENCODING 1066
SWIDTH 500 0
DWIDTH 4 0
BBX 4 5 1 0
BITMAP
C0
40
70
50
70
ENDCHAR
STARTCHAR char1067
ENCODING 1067
SWIDTH 750 0
DWIDTH 6 0
BBX 5 5 0 0
BITMAP
88
88
E8
A8
E8
ENDCHAR
STARTCHAR char1068
ENCODING 1068
SWIDTH 500 0
DWIDTH 4 0
BBX 4 5 1 0
BITMAP
80
80
E0
90
E0
ENDCHAR
STARTCHAR char1069
ENCODING 1069
SWIDTH 625 0
DWIDTH 5 0
BBX 4 5 1 0
BITMAP
E0
10
70
10
E0
ENDCHAR
STARTCHAR char1070
ENCODING 1070
SWIDTH 750 0
DWIDTH 6 0
BBX 5 5 0 0
BITMAP
B8
A8
E8
A8
B8
ENDCHAR
STARTCHAR char1071
ENCODING 1071
SWIDTH 500 0
DWIDTH 4 0
BBX 4 5 1 0
BITMAP
70
90
70
50
90
ENDCHAR
STARTCHAR char1072
ENCODING 1072
SWIDTH 500 0
DWIDTH 4 0
BBX 4 5 1 0
BITMAP
60
90
F0
90
90
ENDCHAR
STARTCHAR char1073
ENCODING 1073
SWIDTH 500 0
DWIDTH 4 0
BBX 4 5 0 0
BITMAP
F0
80
E0
90
E0
ENDCHAR
STARTCHAR char1074
ENCODING 1074
SWIDTH 500 0
DWIDTH 4 0
BBX 4 5 1 0
BITMAP
E0
90
E0
90
E0
ENDCHAR
STARTCHAR char1075
ENCODING 1075
SWIDTH 500 0
DWIDTH 4 0
BBX 4 5 1 0
BITMAP
F0
80
80
80
80
ENDCHAR
STARTCHAR char1076
ENCODING 1076
SWIDTH 750 0
DWIDTH 6 0
BBX 5 5 0 0
BITMAP
70
50
50
F8
88
ENDCHAR
STARTCHAR char1077
ENCODING 1077
SWIDTH 500 0
DWIDTH 4 0
BBX 4 5 1 0
BITMAP
F0
80
E0
80
F0
ENDCHAR
STARTCHAR char1078
ENCODING 1078
SWIDTH 750 0
DWIDTH 6 0
BBX 5 5 0 0
BITMAP
A8
A8
70
A8
A8
ENDCHAR
STARTCHAR char1079
ENCODING 1079
SWIDTH 625 0
DWIDTH 5 0
BBX 4 5 1 0
BITMAP
E0
10
60
10
E0
ENDCHAR
STARTCHAR char1080
ENCODING 1080
SWIDTH 750 0
DWIDTH 6 0
BBX 5 5 0 0
BITMAP
88
98
A8
C8
88
ENDCHAR
STARTCHAR char1081
ENCODING 1081
SWIDTH 750 0
DWIDTH 6 0
BBX 5 5 0 0
BITMAP
A8
98
A8
C8
88
ENDCHAR
STARTCHAR char1082
ENCODING 1082
SWIDTH 750 0
DWIDTH 6 0
BBX 5 5 0 0
BITMAP
88
90
E0
90
88
ENDCHAR
STARTCHAR char1083
ENCODING 1083
SWIDTH 625 0
DWIDTH 5 0
BBX 4 5 1 0
BITMAP
30
50
90
90
90
ENDCHAR
STARTCHAR char1084
ENCODING 1084
SWIDTH 750 0
DWIDTH 6 0
BBX 5 5 0 0
BITMAP
88
D8
A8
88
88
ENDCHAR
STARTCHAR char1085
ENCODING 1085
SWIDTH 500 0
DWIDTH 4 0
BBX 4 5 0 0
BITMAP
90
90
F0
90
90
ENDCHAR
STARTCHAR char1086
ENCODING 1086
SWIDTH 500 0
DWIDTH 4 0
BBX 4 5 1 0
BITMAP
F0
90
90
90
F0
ENDCHAR
STARTCHAR char1087
ENCODING 1087
SWIDTH 500 0
DWIDTH 4 0
BBX 4 5 1 0
BITMAP
F0
90
90
90
90
ENDCHAR
STARTCHAR char1088
ENCODING 1088
SWIDTH 500 0
DWIDTH 4 0
BBX 4 5 1 0
BITMAP
F0
90
F0
80
80
ENDCHAR
STARTCHAR char1089
ENCODING 1089
SWIDTH 500 0
DWIDTH 4 0
BBX 4 5 0 0
BITMAP
F0
80
80
80
F0
ENDCHAR
STARTCHAR char1090
ENCODING 1090
SWIDTH 750 0
DWIDTH 6 0
BBX 5 5 0 0
BITMAP
F8
20
20
20
20
ENDCHAR
STARTCHAR char1091
ENCODING 1091
SWIDTH 500 0
DWIDTH 4 0
BBX 4 5 0 0
BITMAP
90
90
F0
10
F0
ENDCHAR
STARTCHAR char1092
ENCODING 1092
SWIDTH 750 0
DWIDTH 6 0
BBX 5 6 0 0
BITMAP
20
70
A8
A8
70
20
ENDCHAR
STARTCHAR char1093
ENCODING 1093
SWIDTH 625 0
DWIDTH 5 0
BBX 4 5 1 0
BITMAP
90
90
60
90
90
ENDCHAR
STARTCHAR char1094
ENCODING 1094
SWIDTH 625 0
DWIDTH 5 0
BBX 5 5 0 0
BITMAP
90
90
90
F8
08
ENDCHAR
STARTCHAR char1095
ENCODING 1095
SWIDTH 500 0
DWIDTH 4 0
BBX 4 5 0 0
BITMAP
90
90
70
10
10
ENDCHAR
STARTCHAR char1096
ENCODING 1096
SWIDTH 750 0
DWIDTH 6 0
BBX 5 5 0 0
BITMAP
A8
A8
A8
A8
F8
ENDCHAR
STARTCHAR char1097
ENCODING 1097
SWIDTH 750 0
DWIDTH 6 0
BBX 6 5 0 0
BITMAP
A8
A8
A8
FC
04
ENDCHAR
STARTCHAR char1098
ENCODING 1098
SWIDTH 750 0
DWIDTH 6 0
BBX 5 5 0 0
BITMAP
C0
40
78
48
78
ENDCHAR
STARTCHAR char1099
ENCODING 1099
SWIDTH 750 0
DWIDTH 6 0
BBX 5 5 0 0
BITMAP
88
88
E8
A8
E8
ENDCHAR
STARTCHAR char1100
ENCODING 1100
SWIDTH 500 0
DWIDTH 4 0
BBX 4 5 1 0
BITMAP
80
80
F0
90
F0
ENDCHAR
STARTCHAR char1101
ENCODING 1101
SWIDTH 625 0
DWIDTH 5 0
BBX 4 5 1 0
BITMAP
E0
10
30
10
E0
ENDCHAR
STARTCHAR char1102
ENCODING 1102
SWIDTH 750 0
DWIDTH 6 0
BBX 5 5 0 0
BITMAP
B8
A8
E8
A8
B8
ENDCHAR
STARTCHAR char1103
ENCODING 1103
SWIDTH 500 0
DWIDTH 4 0
BBX 4 5 1 0
BITMAP
70
90
70
50
90
ENDCHAR
STARTCHAR char8211
ENCODING 8211
SWIDTH 750 0
DWIDTH 6 0
BBX 3 1 1 2
BITMAP
E0
ENDCHAR
STARTCHAR char8212
ENCODING 8212
SWIDTH 750 0
DWIDTH 6 0
BBX 5 1 0 2
BITMAP
F8
ENDCHAR
STARTCHAR char8230
ENCODING 8230
SWIDTH 750 0
DWIDTH 6 0
BBX 5 1 0 0
BITMAP
A8
ENDCHAR
STARTCHAR char8240
ENCODING 8240
SWIDTH 750 0
DWIDTH 6 0
BBX 5 5 0 0
BITMAP
88
10
20
40
A8
ENDCHAR
STARTCHAR char8249
ENCODING 8249
SWIDTH 750 0
DWIDTH 6 0
BBX 3 5 1 0
BITMAP
20
40
80
40
20
ENDCHAR
STARTCHAR char8250
ENCODING 8250
SWIDTH 750 0
DWIDTH 6 0
BBX 3 5 1 0
BITMAP
80
40
20
40
80
ENDCHAR
STARTCHAR char8364
ENCODING 8364
SWIDTH 750 0
DWIDTH 6 0
BBX 5 6 0 0
BITMAP
78
80
F8
F8
80
78
ENDCHAR
ENDFONT
